<svg aria-label="carconnect Logo" className="logo-image" width="250" height="37" viewBox="0 0 216 32" fill="none" xmlns="http://www.w3.org/2000/svg" version="1.1">
	<path className="group-hover:fill-primary duration-250 transition ease-in-out group-hover:bg-left-bottom" fill-rule="evenodd" clip-rule="evenodd"
	      d="M65.4224 22.3256C65.3435 22.3866 65.2628 22.4493 65.1732 22.5157C65.1732 22.5157 65.157 22.5157 65.1516 22.5246C65.0745 22.5874 64.992 22.6448 64.9113 22.704C64.7625 22.808 64.6083 22.912 64.4522 23.0106C63.4324 23.6236 62.2595 23.9345 61.07 23.9073C57.9585 23.9073 56.3014 21.8055 56.3014 19.0168C56.3014 16.2282 58.0786 14.2429 61.07 14.2429C62.8077 14.2429 64.02 14.7289 64.9902 15.4552C65.1104 15.5359 65.1516 15.5359 65.1911 15.5359C65.3131 15.5359 65.3938 15.4552 65.3938 15.2131V10.9252C65.3938 10.7243 65.3525 10.6436 65.0709 10.5217C63.8981 9.99624 61.9989 9.71289 60.5033 9.71289C55.1232 9.71289 51.0469 13.6744 51.0469 19.0079C51.0469 24.3413 55.1286 28.4248 60.5033 28.4248C61.8472 28.4214 63.1834 28.2196 64.4684 27.8258H64.4827C64.723 27.7475 64.9578 27.6535 65.1857 27.5443L65.2126 27.5299C65.383 27.4528 65.5516 27.3703 65.7166 27.2788C66.0878 27.078 66.4482 26.861 66.8087 26.6422C65.8856 25.3944 65.3985 23.8776 65.4224 22.3256Z"
	      fill="#041C2C"></path>
	<path className="group-hover:fill-primary duration-400 transition ease-in-out group-hover:bg-left-bottom" fill-rule="evenodd" clip-rule="evenodd"
	      d="M111.458 22.4949C111.024 23.0138 110.499 23.45 109.909 23.7825C109.512 24.0121 109.097 24.2083 108.668 24.369C107.878 24.6687 107.038 24.8166 106.193 24.8047C102.637 24.8047 100.574 22.2582 100.574 18.7826C100.574 15.3878 102.637 12.8018 106.193 12.8018C107.97 12.8018 109.421 13.4079 110.355 14.3387C110.418 14.3756 110.486 14.4028 110.556 14.4194C110.678 14.4194 110.718 14.3387 110.718 14.136V10.8219C110.718 10.6193 110.678 10.5386 110.395 10.4166C109.224 9.89116 107.525 9.56836 106.111 9.56836C100.818 9.56836 96.9375 13.6106 96.9375 18.7826C96.9375 23.9547 100.818 28.0382 106.111 28.0382C106.736 28.0357 107.361 27.9811 107.977 27.875C108.198 27.8391 108.417 27.7961 108.634 27.7441L108.79 27.71C109.238 27.5921 109.678 27.4447 110.106 27.2688C110.572 27.0747 111.023 26.8482 111.457 26.5909C112.061 26.2356 112.631 25.825 113.16 25.3643C112.44 24.5069 111.866 23.5376 111.458 22.4949Z"
	      fill="#041C2C"></path>
	<path className="group-hover:fill-primary duration-450 transition ease-in-out group-hover:bg-left-bottom"
	      d="M120.906 9.56836C125.958 9.56836 130.081 13.7307 130.081 18.7826C130.081 23.8345 125.956 28.0382 120.906 28.0382C115.856 28.0382 111.691 23.8345 111.691 18.7826C111.704 16.3428 112.679 14.0065 114.404 12.2812C116.13 10.556 118.466 9.58108 120.906 9.56836ZM120.906 24.8119C124.301 24.8119 126.444 22.1452 126.444 18.7898C126.444 15.5169 124.292 12.809 120.906 12.809C117.55 12.809 115.328 15.5169 115.328 18.7898C115.328 22.1362 117.55 24.8047 120.906 24.8047V24.8119Z"
	      fill="#041C2C"></path>
	<path className="group-hover:fill-primary transition duration-500 ease-in-out group-hover:bg-left-bottom"
	      d="M146.544 27.6329H143.797C143.438 27.6329 143.391 27.5522 143.391 27.2276V17.2063C143.391 14.423 142.38 12.809 139.754 12.809C137.005 12.809 134.984 14.7081 134.984 17.9828V27.2365C134.984 27.5611 134.945 27.6418 134.581 27.6418H131.833C131.475 27.6418 131.43 27.5611 131.43 27.2365V10.379C131.43 10.0203 131.469 9.97545 131.833 9.97545H134.581C134.939 9.97545 134.984 10.0562 134.984 10.379V11.993C134.984 12.0342 135.025 12.0737 135.147 12.0737C135.228 12.0737 135.269 12.0737 135.309 12.0342C136.844 10.5798 138.139 9.56836 140.603 9.56836C145.493 9.56836 146.948 12.5597 146.948 16.3993V27.2276C146.948 27.5522 146.908 27.6329 146.544 27.6329Z"
	      fill="#041C2C"></path>
	<path className="group-hover:fill-primary duration-550 transition ease-in-out group-hover:bg-left-bottom"
	      d="M163.966 27.6329H161.219C160.86 27.6329 160.813 27.5522 160.813 27.2276V17.2063C160.813 14.423 159.804 12.809 157.176 12.809C154.427 12.809 152.408 14.7081 152.408 17.9828V27.2365C152.408 27.5611 152.367 27.6418 152.004 27.6418H149.255C148.896 27.6418 148.852 27.5611 148.852 27.2365V10.379C148.852 10.0203 148.891 9.97545 149.255 9.97545H152.004C152.363 9.97545 152.408 10.0562 152.408 10.379V11.993C152.408 12.0342 152.447 12.0737 152.569 12.0737C152.65 12.0737 152.691 12.0737 152.731 12.0342C154.266 10.5798 155.561 9.56836 158.025 9.56836C162.915 9.56836 164.37 12.5597 164.37 16.3993V27.2276C164.37 27.5522 164.33 27.6329 163.966 27.6329Z"
	      fill="#041C2C"></path>
	<path className="group-hover:fill-primary duration-600 transition ease-in-out group-hover:bg-left-bottom"
	      d="M175.092 24.8047C176.706 24.8047 179.294 24.1591 180.225 23.1082C180.264 23.067 180.345 22.9468 180.467 22.9468C180.589 22.9468 180.63 23.067 180.63 23.3503V26.139C180.63 26.3417 180.589 26.4977 180.306 26.7039C179.294 27.4715 177.153 28.0382 175.092 28.0382C168.828 28.0382 165.715 23.9565 165.715 18.7826C165.715 13.7307 169.07 9.56836 174.122 9.56836C179.538 9.56836 182.372 13.8527 182.372 18.7826V19.9143C182.372 20.2388 182.332 20.3196 181.968 20.3196H169.96C169.601 20.3196 169.515 20.359 169.515 20.6782C169.798 23.2284 171.859 24.8047 175.092 24.8047ZM169.312 17.0933C169.312 17.452 169.352 17.4968 169.718 17.4968H178.365C178.81 17.4968 178.81 17.4573 178.769 17.0933C178.487 14.6687 177.031 12.7695 174.122 12.7695C171.455 12.7623 169.637 14.701 169.312 17.0861V17.0933Z"
	      fill="#041C2C"></path>
	<path className="group-hover:fill-primary duration-650 transition ease-in-out group-hover:bg-left-bottom"
	      d="M192.63 28.0382C187.336 28.0382 183.457 23.9565 183.457 18.7826C183.457 13.6088 187.336 9.56836 192.63 9.56836C194.045 9.56836 195.743 9.89116 196.914 10.4166C197.198 10.5386 197.237 10.6193 197.237 10.8219V14.136C197.237 14.3387 197.198 14.4194 197.076 14.4194C197.005 14.4028 196.937 14.3756 196.875 14.3387C195.944 13.4079 194.49 12.8018 192.711 12.8018C189.155 12.8018 187.094 15.3878 187.094 18.7826C187.094 22.2582 189.155 24.8047 192.711 24.8047C194.61 24.8047 196.066 24.1986 197.036 23.1082C197.076 23.067 197.117 23.067 197.198 23.067C197.318 23.067 197.359 23.1477 197.359 23.3503V26.7039C197.359 26.9066 197.318 26.9873 197.036 27.1092C195.783 27.7154 194.04 28.0382 192.63 28.0382Z"
	      fill="#041C2C"></path>
	<path className="group-hover:fill-primary transition duration-700 ease-in-out group-hover:bg-left-bottom"
	      d="M198.043 12.7188V10.3749C198.043 10.0521 198.082 9.97137 198.446 9.97137H200.751C201.11 9.97137 201.156 9.93013 201.156 9.56607V6.20173C201.153 6.06625 201.19 5.93282 201.261 5.81781C201.333 5.7028 201.437 5.61123 201.56 5.55433L204.187 3.94031C204.309 3.89906 204.348 3.81836 204.469 3.81836C204.589 3.81836 204.671 3.94031 204.671 4.14116V9.56607C204.671 9.92475 204.712 9.97137 205.077 9.97137H207.541C207.899 9.97137 207.946 10.0521 207.946 10.3749V12.7188C207.946 13.0416 207.905 13.1223 207.541 13.1223H205.077C204.718 13.1223 204.671 13.1636 204.671 13.5276V27.2271C204.671 27.5517 204.632 27.6324 204.268 27.6324H201.569C201.21 27.6324 201.165 27.5517 201.165 27.2271V13.5258C201.165 13.1671 201.124 13.1205 200.76 13.1205H198.455C198.082 13.1223 198.043 13.0416 198.043 12.7188Z"
	      fill="#041C2C"></path>
	<path className="group-hover:fill-primary transition duration-300 ease-in-out group-hover:bg-left-bottom"
	      d="M73.3556 16.099C75.3283 16.099 76.6285 16.5025 77.6399 17.2307C77.6887 17.2595 77.7447 17.2738 77.8013 17.2719C77.9627 17.2719 77.9627 17.1894 77.9627 16.9473V16.5438C77.9627 14.5227 76.9531 13.7139 74.3653 13.7139C72.8389 13.7231 71.3388 14.1119 70.0002 14.8455C69.903 14.9096 69.7927 14.9513 69.6774 14.9674C69.5555 14.9674 69.4748 14.928 69.4748 14.6446V11.3305C69.4664 11.2248 69.4938 11.1193 69.5527 11.0312C69.6116 10.943 69.6985 10.8772 69.7994 10.8445C70.7678 10.3603 72.7494 9.71289 74.9732 9.71289C78.0829 9.71289 79.4978 10.1182 80.7927 11.0884C82.6506 12.4621 83.0541 14.5227 83.0541 19.5333V27.5765C83.0541 27.9011 83.0146 27.98 82.6506 27.98H78.5689C78.2102 27.98 78.1636 27.9011 78.1636 27.5765V26.2835C78.1636 26.2423 78.0434 26.2028 78.004 26.2028C77.9472 26.1967 77.8901 26.2106 77.8426 26.2423C76.5478 27.7379 74.9732 28.3943 72.5055 28.3943C68.9906 28.3943 66.3633 25.8836 66.3633 22.331C66.3633 18.4035 69.1932 16.099 73.3556 16.099ZM74.7293 19.4939C72.7889 19.4939 71.5013 20.4641 71.5013 21.9597C71.5013 23.4949 72.7943 24.4704 74.7293 24.4704C76.589 24.4704 77.9573 23.4195 77.9573 21.9597C77.9627 20.5448 76.589 19.4939 74.7293 19.4939Z"
	      fill="#041C2C"></path>
	<path className="group-hover:fill-primary duration-350 transition ease-in-out group-hover:bg-left-bottom"
	      d="M84.9131 27.9801C84.5544 27.9801 84.5078 27.9011 84.5078 27.5765V10.5629C84.5078 10.2383 84.5491 10.1576 84.9131 10.1576H89.1957C89.5543 10.1576 89.601 10.2383 89.601 10.5629V12.663C89.601 12.7042 89.7229 12.7437 89.7624 12.7437C89.8191 12.7495 89.8761 12.7356 89.9238 12.7042C90.772 11.3305 92.7519 9.71289 95.259 9.71289C95.6177 9.71289 95.6625 9.79359 95.6625 10.1182V14.3613C95.6625 14.6841 95.6231 14.806 95.4204 14.806C95.259 14.806 94.8143 14.7253 94.1651 14.7253C91.093 14.7253 89.6817 17.0693 89.6817 21.0702V27.5765C89.6817 27.9011 89.6404 27.9801 89.2764 27.9801H84.9131Z"
	      fill="#041C2C"></path>
	<path className="group-hover:fill-black" fill-rule="evenodd" clip-rule="evenodd"
	      d="M12.4543 25.6163C11.3067 25.6168 10.1798 25.3105 9.19045 24.7291C8.20107 24.1477 7.38512 23.3123 6.82713 22.3095C6.26915 21.3067 5.98941 20.173 6.01691 19.0258C6.04441 17.8785 6.37813 16.7595 6.98352 15.7846C7.5889 14.8097 8.44393 14.0143 9.46004 13.481C10.4761 12.9476 11.6164 12.6957 12.7626 12.7511C13.9088 12.8066 15.0194 13.1675 15.9792 13.7965C16.9391 14.4255 17.7133 15.2997 18.2217 16.3285C18.7071 14.114 19.7419 12.0572 21.231 10.3477C19.7789 8.90576 17.994 7.84383 16.0339 7.25579C14.0739 6.66775 11.9992 6.57171 9.99318 6.97617C7.9872 7.38063 6.11178 8.27313 4.53275 9.57474C2.95372 10.8764 1.71972 12.547 0.939877 14.4389C0.160033 16.3308 -0.141634 18.3858 0.0615498 20.422C0.264734 22.4582 0.966509 24.4131 2.10482 26.1136C3.24314 27.8141 4.78292 29.208 6.58802 30.1719C8.39311 31.1358 10.4079 31.6401 12.4543 31.6402C15.7298 31.6508 18.8755 30.3608 21.2005 28.0535C19.7156 26.3381 18.6885 24.2752 18.2145 22.0565C17.6767 23.1239 16.8538 24.0215 15.8371 24.6498C14.8203 25.2782 13.6495 25.6127 12.4543 25.6163Z"
	      fill="#FA4616"></path>
	<path className="group-hover:fill-black" fill-rule="evenodd" clip-rule="evenodd"
	      d="M21.8869 11.0508C20.0458 13.1837 18.9807 15.877 18.8651 18.6923C18.8776 18.8447 18.8866 19.0115 18.8866 19.1783C18.8866 19.3451 18.8866 19.5083 18.8633 19.6715V19.7755C18.9922 22.5586 20.0469 25.219 21.86 27.3345C23.7471 25.161 24.8242 22.4016 24.9087 19.5244C24.9087 19.4078 24.9087 19.3074 24.9087 19.2088C24.9087 19.1101 24.9087 18.9864 24.9087 18.877C24.8384 15.997 23.7703 13.2307 21.8869 11.0508Z"
	      fill="#DA291C"></path>
	<path className="group-hover:fill-black" fill-rule="evenodd" clip-rule="evenodd"
	      d="M31.3527 6.71078C28.0704 6.7022 24.9188 7.99673 22.5903 10.3101C24.0832 12.0284 25.1128 14.0993 25.5816 16.3268C26.2322 15.0228 27.3048 13.9773 28.625 13.3602C29.9452 12.7432 31.4353 12.591 32.853 12.9283C34.2707 13.2656 35.5326 14.0726 36.4334 15.2181C37.3343 16.3636 37.8211 17.7801 37.8147 19.2374C37.8083 20.6947 37.309 22.1069 36.3982 23.2444C35.4873 24.3819 34.2184 25.1778 32.7978 25.5027C31.3772 25.8275 29.8884 25.6622 28.5737 25.0336C27.259 24.405 26.1956 23.3501 25.5565 22.0404C25.0654 24.2635 24.0162 26.3249 22.5078 28.0302C23.6652 29.2001 25.0441 30.1276 26.564 30.7585C28.0838 31.3895 29.7142 31.7112 31.3598 31.7048C34.6745 31.7048 37.8534 30.3881 40.1972 28.0443C42.541 25.7005 43.8578 22.5216 43.8578 19.2069C43.8578 15.8923 42.541 12.7134 40.1972 10.3695C37.8534 8.02573 34.6745 6.70898 31.3598 6.70898L31.3527 6.71078Z"
	      fill="#FA4616"></path>
	<path className="logo-tm-t" d="M212.036 0.640947H211.011V3.48361H210.593V0.640947H209.57V0.294922H212.036V0.640947Z" fill="black"></path>
	<path className="logo-tm-m"
	      d="M213.052 0.294922L214.095 2.89668L215.137 0.294922H215.683V3.48361H215.262V2.24186L215.302 0.901562L214.255 3.48361H213.933L212.888 0.908132L212.93 2.24186V3.48361H212.509V0.294922H213.052Z"
	      fill="black"></path>
</svg>
